<svg xmlns="http://www.w3.org/2000/svg" width="27.063" height="27.063" viewBox="0 0 27.063 27.063"><defs><style>.a{fill:#022e64;}</style></defs><g transform="translate(0 -0.001)"><g transform="translate(0 0.001)"><g transform="translate(0 0)"><path class="a" d="M4.457,23.561a13.473,13.473,0,1,0-2.894-4.293A13.462,13.462,0,0,0,4.457,23.561ZM14.008,2.473A11.536,11.536,0,1,1,2.472,14.009,11.536,11.536,0,0,1,14.008,2.473Z" transform="translate(-0.477 -0.478)"/><path class="a" d="M13.531,27.064a13.534,13.534,0,0,1-5.268-26A13.534,13.534,0,0,1,18.8,26,13.449,13.449,0,0,1,13.531,27.064Zm0-27.017a13.488,13.488,0,0,0-5.25,25.91,13.488,13.488,0,0,0,10.5-24.85A13.4,13.4,0,0,0,13.531.047Zm0,25.045A11.559,11.559,0,0,1,5.358,5.359,11.559,11.559,0,1,1,21.705,21.706,11.484,11.484,0,0,1,13.531,25.092Zm0-23.073A11.513,11.513,0,0,0,5.39,21.673,11.513,11.513,0,1,0,21.672,5.391,11.438,11.438,0,0,0,13.531,2.019Z" transform="translate(0 -0.001)"/></g><g transform="translate(6.374 8.301)"><path class="a" d="M143.11,190.968a.986.986,0,0,0,1.394,0l8.442-8.442a.986.986,0,0,0-1.394-1.394l-7.744,7.744-3.158-3.158a.986.986,0,0,0-1.394,1.394Z" transform="translate(-138.944 -180.82)"/><path class="a" d="M143.34,190.8a1,1,0,0,1-.714-.3l-3.855-3.855a1.009,1.009,0,1,1,1.427-1.427l3.142,3.142,7.728-7.728a1.009,1.009,0,1,1,1.427,1.427l-8.442,8.442A1,1,0,0,1,143.34,190.8Zm-3.855-5.827a.963.963,0,0,0-.681,1.644l3.855,3.855a.963.963,0,0,0,1.362,0l8.442-8.442a.963.963,0,0,0-1.362-1.362l-7.761,7.761-3.174-3.174A.957.957,0,0,0,139.485,184.974Z" transform="translate(-138.477 -180.342)"/></g></g></g></svg>