<svg xmlns="http://www.w3.org/2000/svg" width="17.216" height="22.574" viewBox="0 0 17.216 22.574"><defs><style>.a{fill:#e00f0f;}</style></defs><path class="a" d="M74.087,2.052a1.156,1.156,0,0,1,1.2-1.165H80.21a1.156,1.156,0,0,1,1.2,1.165V3.328H82.3V2.052A2.044,2.044,0,0,0,80.21,0H75.285A2.044,2.044,0,0,0,73.2,2.052V3.328h.887Zm0,0" transform="translate(-69.139)"/><path class="a" d="M30,139.7H40.49a1.89,1.89,0,0,0,1.8-2V124H28.2v13.7a1.89,1.89,0,0,0,1.8,2Zm8.075-13.578a.444.444,0,0,1,.887,0V136.6a.444.444,0,1,1-.887,0Zm-3.272,0a.444.444,0,0,1,.887,0V136.6a.444.444,0,1,1-.887,0Zm-3.272,0a.444.444,0,0,1,.887,0V136.6a.444.444,0,1,1-.887,0Zm0,0" transform="translate(-26.635 -117.123)"/><path class="a" d="M1.109,70.219h15a1.109,1.109,0,1,0,0-2.219h-15a1.109,1.109,0,1,0,0,2.219Zm0,0" transform="translate(0 -64.228)"/></svg>