<svg xmlns="http://www.w3.org/2000/svg" xmlns:xlink="http://www.w3.org/1999/xlink" width="21" height="21" viewBox="0 0 21 21"><defs><style>.a{fill:#fff;}.b{clip-path:url(#a);}.c{fill:#5a5a5a;}</style><clipPath id="a"><rect class="a" width="21" height="21" transform="translate(1572.764 194.764)"/></clipPath></defs><g class="b" transform="translate(-1572.764 -194.764)"><g transform="translate(1574.112 195)"><g transform="translate(0)"><path class="c" d="M18.466,15.878a.987.987,0,0,1-.986.986H3.964a.987.987,0,0,1-.986-.986V9.627H1.571v11.32A2.4,2.4,0,0,0,3.964,23.34H17.481a2.4,2.4,0,0,0,2.394-2.394V9.627H18.466Z" transform="translate(-1.571 -2.813)"/><path class="c" d="M17.481,2.223h-.618V1.549a1.5,1.5,0,1,0-3.007,0v.674H12.312V1.549a1.5,1.5,0,1,0-3.007,0v.674H7.761V1.549a1.5,1.5,0,1,0-3.007,0v.674h-.79A2.4,2.4,0,0,0,1.571,4.617V5.743h18.3V4.617A2.4,2.4,0,0,0,17.481,2.223ZM6.916,4.306a.66.66,0,1,1-1.318,0V1.549a.66.66,0,1,1,1.318,0Zm4.551,0a.66.66,0,1,1-1.318,0V1.549a.66.66,0,1,1,1.318,0Zm4.551,0a.66.66,0,1,1-1.318,0V1.549a.66.66,0,1,1,1.318,0Z" transform="translate(-1.571)"/><rect class="c" width="1.645" height="1.646" transform="translate(3.245 8.394)"/><rect class="c" width="1.645" height="1.646" transform="translate(5.787 8.394)"/><rect class="c" width="1.645" height="1.646" transform="translate(8.33 8.394)"/><rect class="c" width="1.645" height="1.646" transform="translate(10.872 8.394)"/><rect class="c" width="1.646" height="1.646" transform="translate(13.414 8.394)"/><rect class="c" width="1.645" height="1.646" transform="translate(3.244 10.936)"/><rect class="c" width="1.645" height="1.646" transform="translate(5.786 10.936)"/><rect class="c" width="1.645" height="1.646" transform="translate(8.329 10.936)"/><rect class="c" width="1.645" height="1.646" transform="translate(10.872 10.936)"/><rect class="c" width="1.645" height="1.646" transform="translate(13.414 10.936)"/></g></g></g></svg>