<svg xmlns="http://www.w3.org/2000/svg" width="21.867" height="21.866" viewBox="0 0 21.867 21.866"><defs><style>.a{fill:#e0ad0f;}</style></defs><g transform="translate(0 -0.004)"><g transform="translate(0 1.566)"><path class="a" d="M17.962,43.508a.781.781,0,0,0-.781.781V52.1a.781.781,0,0,1-.781.781H2.343a.781.781,0,0,1-.781-.781V36.48a.781.781,0,0,1,.781-.781h9.371a.781.781,0,1,0,0-1.562H2.343A2.343,2.343,0,0,0,0,36.48V52.1a2.343,2.343,0,0,0,2.343,2.343H16.4A2.343,2.343,0,0,0,18.743,52.1V44.289A.781.781,0,0,0,17.962,43.508Z" transform="translate(0 -34.137)"/></g><g transform="translate(4.686 0.004)"><g transform="translate(0 0)"><path class="a" d="M118.714.879a2.989,2.989,0,0,0-4.228,0L104.2,11.166a.79.79,0,0,0-.188.305l-1.562,4.686a.781.781,0,0,0,.74,1.028.793.793,0,0,0,.247-.04l4.686-1.562a.781.781,0,0,0,.305-.189L118.714,5.107A2.99,2.99,0,0,0,118.714.879Z" transform="translate(-102.409 -0.004)"/></g></g></g></svg>