<svg xmlns="http://www.w3.org/2000/svg" width="36.847" height="36.848" viewBox="0 0 36.847 36.848"><g transform="translate(1 1)"><g transform="translate(-1 -1)"><path d="M22.03,22.03a1.535,1.535,0,0,0-1.535,1.535v9.212H2.071V2.071H20.494v9.212a1.535,1.535,0,1,0,3.071,0V.535A1.535,1.535,0,0,0,22.03-1H.535A1.535,1.535,0,0,0-1,.535V34.312A1.535,1.535,0,0,0,.535,35.848H22.03a1.535,1.535,0,0,0,1.535-1.535V23.565A1.535,1.535,0,0,0,22.03,22.03Z" transform="translate(1 1)"/><path d="M253.278,156.984c.015-.018.027-.037.041-.055s.033-.043.048-.066.027-.045.041-.067.025-.041.036-.062.023-.046.034-.07.021-.044.031-.066.017-.046.025-.069.018-.048.025-.073.012-.046.018-.07.013-.05.019-.076.008-.054.012-.081.007-.044.01-.067a1.545,1.545,0,0,0,0-.3c0-.023-.006-.045-.01-.067s-.007-.054-.012-.081-.012-.051-.019-.076-.011-.047-.018-.07-.017-.049-.025-.073-.016-.046-.025-.069-.02-.044-.031-.066-.021-.047-.034-.07-.024-.041-.036-.062-.026-.045-.041-.067-.032-.044-.048-.066-.026-.037-.041-.055q-.047-.058-.1-.111l0,0-6.141-6.141a1.535,1.535,0,1,0-2.171,2.171l3.52,3.52H235.2a1.535,1.535,0,0,0,0,3.071h13.182l-3.52,3.52a1.535,1.535,0,0,0,2.171,2.171l6.141-6.141,0,0Q253.231,157.042,253.278,156.984Z" transform="translate(-216.779 -137.587)"/></g></g></svg>