<svg xmlns="http://www.w3.org/2000/svg" width="28.99" height="34.426" viewBox="0 0 28.99 34.426"><defs><style>.a{fill:#022e64;}</style></defs><g transform="translate(-1.559)"><path class="a" d="M30.549,25.779H27.06A10.854,10.854,0,0,0,16.053,15.108,10.853,10.853,0,0,0,5.047,25.779H1.559a14.346,14.346,0,0,1,14.5-14.159A14.345,14.345,0,0,1,30.549,25.779Z" transform="translate(0 8.647)"/><path class="a" d="M13.951,19.134A9.567,9.567,0,1,1,23.52,9.567,9.579,9.579,0,0,1,13.951,19.134Zm0-15.645a6.078,6.078,0,1,0,6.08,6.078A6.084,6.084,0,0,0,13.951,3.488Z" transform="translate(2.104)"/></g></svg>